<svg width="224" height="44" viewBox="0 0 224 44" fill="none" xmlns="http://www.w3.org/2000/svg">
<g opacity="0.4">
<g filter="url(#filter0_d_117_4172)">
<path d="M202 18C204.209 18 206 19.7909 206 22V22C206 24.2091 204.209 26 202 26L18 26L18 18L202 18Z" fill="url(#paint0_linear_117_4172)"/>
</g>
<line x1="33.1222" y1="18" x2="33.1222" y2="22.5" stroke="#765C00"/>
<line x1="53.4889" y1="18" x2="53.4889" y2="22.5" stroke="#765C00"/>
<line x1="73.8557" y1="18" x2="73.8557" y2="22.5" stroke="#765C00"/>
<line x1="94.2222" y1="18" x2="94.2222" y2="22.5" stroke="#765C00"/>
<line x1="114.589" y1="18" x2="114.589" y2="22.5" stroke="#765C00"/>
<line x1="134.956" y1="18" x2="134.956" y2="22.5" stroke="#765C00"/>
<line x1="155.322" y1="18" x2="155.322" y2="22.5" stroke="#765C00"/>
<line x1="175.689" y1="18" x2="175.689" y2="22.5" stroke="#765C00"/>
<line x1="196.056" y1="18" x2="196.056" y2="22.5" stroke="#765C00"/>
</g>
<defs>
<filter id="filter0_d_117_4172" x="0" y="-1.52588e-05" width="224" height="44" filterUnits="userSpaceOnUse" color-interpolation-filters="sRGB">
<feFlood flood-opacity="0" result="BackgroundImageFix"/>
<feColorMatrix in="SourceAlpha" type="matrix" values="0 0 0 0 0 0 0 0 0 0 0 0 0 0 0 0 0 0 127 0" result="hardAlpha"/>
<feOffset/>
<feGaussianBlur stdDeviation="9"/>
<feComposite in2="hardAlpha" operator="out"/>
<feColorMatrix type="matrix" values="0 0 0 0 0 0 0 0 0 0 0 0 0 0 0 0 0 0 0.25 0"/>
<feBlend mode="normal" in2="BackgroundImageFix" result="effect1_dropShadow_117_4172"/>
<feBlend mode="normal" in="SourceGraphic" in2="effect1_dropShadow_117_4172" result="shape"/>
</filter>
<linearGradient id="paint0_linear_117_4172" x1="206" y1="22" x2="18" y2="22" gradientUnits="userSpaceOnUse">
<stop stop-color="#FFC600"/>
<stop offset="1" stop-color="#FFDE69"/>
</linearGradient>
</defs>
</svg>
